# xmcd
#
# Track frame offsets:
#	150
#	15372
#	38797
#	54027
#
# Disc length: 922 seconds
#
# Revision: 3
# Processed by: cddbd v1.5.2PL0 Copyright (c) Steve Scherf et al.
# Submitted via: audiograbber 1.83.01
#
DISCID=1e039804
DTITLE=Drängarna - Vill Du Bli Min Fru
DYEAR=1995
DGENRE=Techno
TTITLE0=Vill Du Bli Min Fru (Radio Version)
TTITLE1=Vill Du Bli Min Fru (Längre)
TTITLE2=Vill Du Bli Min Fru (Instrumental)
TTITLE3=Vill Du Bli Min Fru (Sjung Själv)
EXTD=YEAR: 1995 ID3G:  18
EXTT0=
EXTT1=
EXTT2=
EXTT3=
PLAYORDER=
